<svg version="1.1" id="Layer_1" xmlns="http://www.w3.org/2000/svg" xmlns:xlink="http://www.w3.org/1999/xlink" x="0px" y="0px" viewBox="0 0 125 62.5" style="enable-background:new 0 0 125 62.5;" xml:space="preserve">
 <style type="text/css">
  .st0{fill:#FF6A00;}
 </style>
 <g>
  <g>
   <path class="st0" d="M109.8,53.9c-2.3,0-4.2,1.9-4.2,4.3c0,2.4,1.9,4.3,4.2,4.3c2.3,0,4.2-1.9,4.2-4.3
			C114.1,55.9,112.2,53.9,109.8,53.9z M109.8,61.8c-2,0-3.6-1.6-3.6-3.6c0-2,1.6-3.6,3.6-3.6c2,0,3.6,1.6,3.6,3.6
			C113.4,60.2,111.8,61.8,109.8,61.8z">
   </path>
   <path class="st0" d="M110.8,58.6c-0.1-0.1-0.2-0.1-0.4-0.2c0.4-0.1,0.7-0.2,0.9-0.4c0.2-0.2,0.3-0.5,0.3-0.8
			c0-0.3-0.1-0.5-0.2-0.7c-0.1-0.2-0.3-0.3-0.5-0.4c-0.2-0.1-0.5-0.1-0.9-0.1h-2v4.5h0.6v-2h0.7c0.2,0,0.3,0,0.3,0
			c0.1,0,0.2,0.1,0.3,0.1c0.1,0.1,0.2,0.2,0.3,0.3c0.1,0.1,0.3,0.3,0.4,0.6l0.6,0.9h0.7l-0.8-1.2C111.2,58.9,111,58.7,110.8,58.6z
			 M110,57.9h-1.3v-1.5h1.4c0.3,0,0.6,0.1,0.7,0.2c0.1,0.1,0.2,0.3,0.2,0.5c0,0.1,0,0.3-0.1,0.4c-0.1,0.1-0.2,0.2-0.3,0.3
			C110.5,57.8,110.3,57.9,110,57.9z">
   </path>
  </g>
  <path class="st0" d="M73.4,46.8c6.9-9.2,19.9-22.1,20.3-31.2C94.5,3.8,82.6-0.1,70.3,0c-8.6,0.1-17.4,2.6-23.4,4.7
		C26,12.1,13,23.8,4.7,36.9C-4,49.8-1.1,62.1,17.3,62.5c14.1-0.6,23.3-4.5,32.9-9.4c0.1,0-26.5,7.6-36.2,2c0,0,0,0,0,0
		c-1-0.6-2.1-1.4-2.4-3.6c-0.1-4.6,7.6-9.4,11.9-10.9v-8c3.2,1.2,6.6,1.9,10.2,1.9c6.9,0,13.2-2.5,18.1-6.6c0.2,0.7,0.3,1.5,0.2,2.3
		h1.9c0.2-2.1-0.9-3.7-0.9-3.7c-1.7-2.8-4.8-2.7-4.8-2.7s1.6,0.7,2.8,2.4c-4.5,3.8-10.3,6-16.6,6c-2.7,0-5.3-0.4-7.7-1.2l6.3-6.3
		l-1.7-4.6c12.7-4.4,23.3-7.8,40.7-10.9L68,6.3l2-1.2C80.5,8,87.4,10.1,87,15.7c-0.2,0.9-0.5,2-1,3.2c-3,6-12.1,16.1-15.8,20.3
		c-2.4,2.8-4.8,5.5-6.5,8.1c-1.7,2.6-2.8,5.1-2.9,7.4C61,73,114.6,46.2,125,39.1C109.7,45.7,93.2,52,75,53.2
		C69.9,53.5,70.5,50.8,73.4,46.8">
  </path>
 </g>
</svg>