<svg width="190" height="51" viewBox="0 0 190 51" fill="none" xmlns="http://www.w3.org/2000/svg">
<path d="M119.375 4.625C119.375 2 121.5 0 124 0C126.5 0 128.625 2.125 128.625 4.625C128.625 7.125 126.5 9.25 124 9.25C121.375 9.25 119.375 7.125 119.375 4.625Z" fill="#006EFF"/>
<path d="M43.5 33.375C39.5 33.375 36.75 30.25 36.75 25.75C36.75 21.25 39.5 18.125 43.5 18.125C47.5 18.125 50.25 21.25 50.25 25.75C50.25 30.375 47.5 33.375 43.5 33.375ZM43.5 11.25C35.125 11.25 29 17.375 29 25.625C29 33.875 35.125 40 43.5 40C52 40 58.125 33.875 58.125 25.625C58.125 17.375 51.875 11.25 43.5 11.25Z" fill="#006EFF"/>
<path d="M110.375 26.5C110 25.875 109.625 25.375 109.25 25L109 24.75L109.25 24.5C109.625 24.125 110 23.625 110.375 23L117.75 12H108.75L103.125 20.625C102.75 21.125 102.125 21.375 101.25 21.375H100V5C100 1.75 98.0001 1.25 95.7501 1.25H92.0001V39.875H100V28.25H100.75C101.625 28.25 102.25 28.375 102.625 28.875L107 37.25C108.25 39.5 109.5 39.875 111.75 39.875H117.875L113.25 32.375L110.375 26.5Z" fill="#006EFF"/>
<path d="M149.25 11.25C145.125 11.25 142.625 13 141.125 14.625L140.625 15.125L140.5 14.5C140.125 12.875 138.625 12 136.5 12H132.875V39.875H140.875V26.875C140.875 25.625 141 24.5 141.375 23.5C142.25 20.5 144.75 18.625 147.75 18.625C150.25 18.625 151.25 19.875 151.25 23.375V35.5C151.25 38.375 152.625 39.75 155.5 39.75H159.25V22C159.125 15 155.75 11.25 149.25 11.25Z" fill="#006EFF"/>
<path d="M124.125 11.875H120.375V39.75H128.25V16.125C128.25 13.25 126.875 11.875 124.125 11.875Z" fill="#006EFF"/>
<path d="M74.625 33.375C70.625 33.375 67.875 30.25 67.875 25.75C67.875 21.25 70.625 18.125 74.625 18.125C78.625 18.125 81.3751 21.25 81.3751 25.75C81.5001 30.375 78.75 33.375 74.625 33.375ZM74.625 11.25C66.25 11.25 60.1251 17.375 60.1251 25.625C60.1251 33.875 66.25 40.125 74.625 40.125C83.125 40.125 89.25 34 89.25 25.75C89.25 17.5 83.125 11.25 74.625 11.25Z" fill="#006EFF"/>
<path d="M175.875 32.25C171.5 32.25 170 28.5 170 24.875C170 23.25 170.375 18.25 175.5 18.25C178 18.25 181.375 19 181.375 25.125C181.375 31 178.375 32.25 175.875 32.25ZM185.5 11.75C184 11.75 182.875 12.375 182.25 13.5L182 13.875L181.625 13.5C180.375 12.375 178 11.125 174.25 11.125C166.875 11.125 161.875 16.75 161.875 25C161.875 33.25 167 39.125 174.5 39.125C177 39.125 179 38.5 180.625 37.375L181.25 36.875V37.625C181.25 41.375 178.875 43.375 174.5 43.375C172.375 43.375 170.5 42.875 169.125 42.375C167.5 41.875 166.5 42.25 165.75 44L165.125 45.5L164.25 47.75L164.75 48C167.5 49.5 171.125 50.375 174.5 50.375C181.25 50.375 189.125 46.875 189.125 37.125V11.5L185.5 11.75Z" fill="#006EFF"/>
<path d="M13.875 33.125H7.37503V25.375C7.37503 23.75 8 22.875 9.375 22.625H13.75C16.875 22.625 18.875 24.625 18.875 27.875C19 31.125 17.125 33.125 13.875 33.125ZM7.37503 12.25V10.25C7.37503 8.5 8.12498 7.625 9.74998 7.5H13C15.875 7.5 17.5 9.25 17.5 12C17.5 14.125 16.375 16.75 13.125 16.75H7.24998L7.37503 12.25ZM22.125 20L21 19.375L22 18.5C23.125 17.5 25.125 15.125 25.125 11.25C25.125 5.125 20.375 1.25 13.125 1.25H3.87505C1.75005 1.375 0 3.125 0 5.25V39.625H13.375C21.5 39.625 26.75 35.25 26.75 28.375C26.625 24.75 25 21.5 22.125 20Z" fill="#006EFF"/>
</svg>
