<svg width="52" height="31" viewBox="0 0 52 31" fill="none" xmlns="http://www.w3.org/2000/svg">
<path d="M15.665 19.9961C16.7728 12.9028 17.1419 1.5852 17.1419 1.50551C17.3333 -0.540046 20.4649 -0.489156 20.4649 1.5852C20.4649 2.06342 20.0547 13.1817 18.9469 20.4745C18.6344 22.4994 15.3753 22.0594 15.665 19.9961Z" fill="white"/>
<path d="M40.3209 21.6698C48.0744 19.2786 48.1975 17.4455 48.2387 16.4492C48.3207 14.8951 47.0901 12.9025 46.5976 12.2251C45.3382 10.531 48.0359 8.70018 49.2642 10.3521C49.5104 10.6709 51.7257 13.6597 51.5206 16.6485C51.2586 21.2803 45.0732 24.2708 41.0593 24.7579C39.1666 24.9878 38.3957 22.2041 40.3209 21.6698Z" fill="white"/>
<path fill-rule="evenodd" clip-rule="evenodd" d="M17.5521 27.5671C20.9163 24.9771 23.1727 22.6655 24.6495 20.6333C23.8291 20.2348 22.9676 19.637 22.5162 18.6407C22.106 17.7242 21.8598 16.2099 23.2958 14.1775C25.3468 11.2286 27.3981 10.5511 28.1776 10.3917C29.2443 10.1924 30.2698 10.7902 30.5568 11.7864C30.7623 12.5038 31.2544 14.7752 29.7776 18.2423C31.7466 18.2024 33.3058 17.6844 34.4955 16.7279C36.7927 14.9346 36.9159 11.906 36.9159 11.8662C37.0115 9.81748 40.1978 9.89152 40.1978 11.9459C40.1978 12.1053 40.0338 16.3693 36.6288 19.1588C34.4955 20.9123 31.5827 21.6695 28.0545 21.3905C26.3726 23.9011 23.706 26.8501 19.5626 30.038C17.8719 31.2696 15.8079 28.791 17.5521 27.5671ZM27.4392 14.2977C26.9879 14.6564 26.4954 15.1744 25.9621 15.9715C25.4287 16.7685 25.3879 17.2068 25.4287 17.3264C25.5111 17.5256 25.9212 17.7249 26.3314 17.8843C27.111 16.37 27.3569 15.1745 27.4392 14.2977Z" fill="white"/>
<path d="M29.4905 27.0496C31.7888 27.0496 34.1519 26.5899 36.3825 26.0934C38.4794 25.6303 37.751 22.489 35.6849 22.945C32.034 23.7022 29.4494 23.8216 29.4082 23.8216C27.3399 23.9129 27.4359 27.0496 29.4905 27.0496Z" fill="white"/>
<path d="M2.61912 30.1172C13.0396 22.7448 13.4498 13.1009 13.4498 12.7024C13.4498 10.6507 10.2646 10.5552 10.1679 12.6227C10.1679 12.9415 9.75772 21.111 0.69128 27.5269C-1.06426 28.7581 0.873624 31.1772 2.61912 30.1172Z" fill="white"/>
</svg>
