<svg width="33" height="33" viewBox="0 0 33 33" fill="none" xmlns="http://www.w3.org/2000/svg">
<path d="M25.5289 32.1474H6.60447C2.96354 32.1474 0 29.1838 0 25.5288V6.60443C0 2.96354 2.96354 0 6.60447 0H25.5289C29.1838 0 32.1333 2.96354 32.1333 6.60443V25.5288C32.1474 29.1838 29.1838 32.1474 25.5289 32.1474Z" fill="#FDDB32"/>
<path d="M9.81981 25.8963V22.7775C9.81981 22.5235 9.62219 22.3259 9.36823 22.3259H6.24944C5.99542 22.3259 5.79785 22.5235 5.79785 22.7775V25.8963C5.79785 26.1504 5.99542 26.3479 6.24944 26.3479H9.36823C9.62219 26.3479 9.81981 26.1504 9.81981 25.8963Z" fill="#191E3B"/>
<path d="M26.3483 23.2144V7.84631C26.3483 6.70317 25.431 5.78589 24.2879 5.78589H8.91981C8.60934 5.78589 8.42591 5.89883 8.22834 6.09636L5.16601 9.18691C4.94022 9.4127 5.09545 9.75142 5.43415 9.75142H19.3346L10.7121 18.3739C10.5568 18.5291 10.4863 18.6844 10.4863 18.9384V21.2105C10.4863 21.4786 10.6698 21.6621 10.9378 21.6621H13.2099C13.478 21.6621 13.6333 21.5915 13.7744 21.4363L22.3969 12.8137V26.7141C22.3969 27.0529 22.7356 27.2081 22.9614 26.9823L26.052 23.9059C26.2354 23.7083 26.3483 23.5249 26.3483 23.2144Z" fill="#191E3B"/>
</svg>
