<svg width="112" height="100" viewBox="0 0 112 100" fill="none" xmlns="http://www.w3.org/2000/svg">
<path d="M96.4538 4.55042C84.8329 -2.71024 69.5343 -0.980385 55.8898 7.59307C42.2879 -0.980385 26.9798 -2.71024 15.3732 4.55042C-2.987 16.0244 -5.21923 45.5741 10.3921 70.5552C21.8993 88.9722 39.8945 99.7637 55.9135 99.5646C71.9324 99.7637 89.9277 88.9722 101.435 70.5552C117.027 45.5741 114.814 16.0244 96.4538 4.55042ZM18.8329 65.2803C15.6139 60.1773 13.1852 54.6168 11.6291 48.7874C10.2466 43.7272 9.71805 38.4718 10.0651 33.2376C10.7618 24.0054 14.5201 16.8158 20.6433 12.9912C26.7666 9.16653 34.8613 8.93431 43.4822 12.3561C44.776 12.8727 46.0557 13.4699 47.3258 14.1286C42.5352 18.4967 38.3696 23.5044 34.9466 29.0101C25.468 44.176 22.577 61.0528 25.885 74.5078C23.2473 71.6623 20.886 68.5726 18.8329 65.2803ZM100.203 48.7826C98.6445 54.6113 96.2159 60.1715 92.9988 65.2755C90.944 68.5725 88.5828 71.6684 85.9466 74.522C88.904 62.4604 86.8945 47.6831 79.6433 33.8253C79.4091 33.3638 78.9904 33.023 78.4909 32.8875C77.9913 32.752 77.4578 32.8345 77.0225 33.1144L54.4158 47.2376C53.9994 47.4975 53.7034 47.9123 53.5932 48.3906C53.4829 48.8689 53.5675 49.3715 53.8282 49.7874L57.1457 55.0907C57.4046 55.5068 57.8186 55.8027 58.2962 55.913C58.7737 56.0233 59.2755 55.9388 59.6907 55.6784L74.3448 46.522C74.8187 47.9438 75.2926 49.3656 75.6481 50.7874C77.0303 55.8412 77.5605 61.0901 77.2168 66.3182C76.5201 75.5457 72.7618 82.7353 66.6386 86.5646C63.4803 88.4957 59.8614 89.5432 56.1599 89.5978C56.0794 89.5978 55.994 89.5978 55.9135 89.5978H55.6907C51.9891 89.5444 48.3699 88.4967 45.2121 86.5646C39.0841 82.7353 35.3258 75.5457 34.6291 66.3182C34.2842 61.0841 34.8127 55.829 36.1931 50.7684C39.3693 39.0605 45.935 28.5524 55.0651 20.5646C59.0024 17.1087 63.4869 14.3315 68.3353 12.3466C76.9324 8.92483 85.0414 9.15232 91.1694 12.9817C97.2974 16.8111 101.051 23.9959 101.748 33.2281C102.099 38.4628 101.577 43.7195 100.203 48.7826Z" fill="#1BDBDB"/>
</svg>
