<svg width="856" height="1229" viewBox="0 0 856 1229" fill="none" xmlns="http://www.w3.org/2000/svg">
<path d="M235.7 910C273.6 957.4 312.2 1017 332.4 1053C357 1099.8 367.2 1131.4 385.5 1188C396.2 1219 406.4 1228.4 427.8 1228.4C451.2 1228.4 461.9 1212.6 470.1 1188C487.2 1134.9 500.4 1094.5 521.3 1056C601.9 904 733.3 796 807.3 648C807.3 648 856 557.6 856 431C856 313 808 231 808 231L236 911L235.7 910Z" fill="#34A853"/>
<path d="M41.7 632C87.8 737 175.7 829 235.7 910L553.7 533C553.7 533 508.8 591.8 427.7 591.8C337.3 591.8 263.7 519.8 263.7 428.8C263.7 366.2 301 322.8 301 322.8C67 357.6 80 414.3 41 631.8L41.7 632Z" fill="#FBBC04"/>
<path d="M557.7 19.7002C663.7 53.8002 753.7 125.7 807.7 230.7L553.7 533.7C553.7 533.7 591 490.1 591 427.7C591 334.8 512.6 264.7 428 264.7C347.7 264.7 302 322.8 302 322.8C321.5 278.4 523 34.8002 558 19.8002L557.7 19.7002Z" fill="#4285F4"/>
<path d="M99.7 153C162.9 77.8 273.7 0 426.7 0C500.6 0 556.7 19.6 556.7 19.6L301.7 322.6C284.5 313.27 116.7 182.6 99.7 152.6V153Z" fill="#1A73E8"/>
<path d="M41.7 632C41.7 632 0 549.2 0 430C0 317 44.2 218 100 154L302 324L42 632H41.7Z" fill="#EA4335"/>
</svg>
