<svg width="29" height="32" viewBox="0 0 29 32" fill="none" xmlns="http://www.w3.org/2000/svg">
<path d="M13.54 15.2798L0.119995 29.3398C0.270684 29.8739 0.541493 30.3664 0.911721 30.7798C1.28195 31.1932 1.74179 31.5165 2.2561 31.7249C2.77041 31.9333 3.32556 32.0214 3.87913 31.9824C4.43269 31.9434 4.97 31.7783 5.45 31.4998L20.55 22.8998L13.54 15.2798Z" fill="#EA4335"/>
<path d="M27.11 12.8899L20.58 9.1499L13.23 15.5999L20.61 22.8799L27.09 19.1799C27.6641 18.8793 28.1449 18.4273 28.4804 17.873C28.816 17.3186 28.9933 16.6829 28.9933 16.0349C28.9933 15.3869 28.816 14.7512 28.4804 14.1969C28.1449 13.6425 27.6641 13.1905 27.09 12.8899H27.11Z" fill="#FBBC04"/>
<path d="M0.120039 2.66016C0.0389183 2.96004 -0.00144445 3.26949 3.94718e-05 3.58016V28.4202C0.000850852 28.7307 0.0411748 29.0398 0.120039 29.3402L14 15.6402L0.120039 2.66016Z" fill="#4285F4"/>
<path d="M13.64 16L20.58 9.15001L5.5 0.510007C4.93268 0.177748 4.28744 0.00177385 3.63 7.15214e-06C2.83598 -0.00156636 2.06322 0.256535 1.42952 0.734967C0.795826 1.2134 0.33595 1.88592 0.119995 2.65001L13.64 16Z" fill="#34A853"/>
</svg>
