<svg width="530" height="110" viewBox="0 0 530 110" fill="none" xmlns="http://www.w3.org/2000/svg">
<path d="M82.5 79.75C82.5 83.875 81.5835 87.5415 79.75 90.75C77.9165 94.4165 75.1665 97.1665 71.9585 99.9165C68.75 102.666 64.625 104.959 60.0415 106.334C55.4585 107.709 50.4165 108.625 44.9166 108.625C39.875 108.625 35.2916 108.167 31.625 107.709C27.5 107.25 23.8333 106.333 20.1666 105.416C16.5 104.5 13.2916 102.667 10.0833 101.292C6.875 99.4585 3.66666 97.1665 0 94.875L16.0416 80.6665C20.625 84.3335 25.2084 86.625 29.7917 88C34.375 89.375 38.9584 90.2915 44 90.2915C46.2917 90.2915 48.125 89.8335 49.9583 89.375C51.7915 88.9165 53.625 88 55 87.0835C56.375 86.1665 57.2915 84.7915 58.2085 83.875C59.125 82.5 59.5835 81.125 59.5835 79.75C59.5835 77.9165 59.125 76.5415 58.6665 75.1665C58.2085 73.7915 56.8335 72.4165 55 71.5C53.1665 70.125 50.875 69.2085 47.6666 67.8335C44.4583 66.4585 40.7917 65.0835 35.75 63.7085C31.625 62.3335 27.5 60.9585 23.375 59.125C19.25 57.2915 16.0416 55 13.2916 52.7085C10.5416 50.4165 7.79165 47.2084 6.41665 44C4.125 39.875 3.20834 35.75 3.20834 31.1666C3.20834 26.5833 4.125 22.4584 5.95835 18.7917C7.79165 15.125 10.5417 11.9167 14.2084 9.16665C17.4167 6.875 21.5416 4.58334 26.125 3.20834C30.7083 1.83334 35.75 0.916665 40.7916 0.916665C49.5 0.916665 57.2915 1.83334 63.25 4.125C69.2085 6.41665 74.7085 9.16665 79.2915 13.2916L63.7085 27.5C60.9585 25.2083 57.75 22.9167 54.0835 21.5417C50.4165 20.1667 46.2917 19.7083 41.7084 19.7083C39.4167 19.7083 37.5834 20.1667 35.75 20.625C33.4584 21.0833 32.0834 22 30.7084 22.9167C29.3334 23.8334 28.4166 25.2083 27.5 26.5833C26.5834 27.9583 26.125 29.3334 26.125 30.7084C26.125 32.5417 26.5834 33.9167 27.5 35.2917C27.9583 36.6667 29.3333 37.5833 31.1666 38.9583C33 40.3333 35.2916 41.25 38.5 42.625C41.7083 44 45.375 45.375 49.9583 46.75C55.9165 48.5834 60.5 50.4165 64.625 52.7085C68.75 55 71.9585 57.2915 74.7085 60.0415C77.4585 62.7915 79.2915 65.5415 80.6665 68.75C82.0415 71.9585 82.5 75.625 82.5 79.75ZM211.292 107.25H188.834V61.4165H147.125V107.25H124.667V3.20834H147.125V44.4584H188.834V3.20834H211.292V107.25ZM335.5 107.25H253.458V3.20834H335.5V19.7083H275.459V44.4584H330.916V60.5H275.459V88.9165H335.5V107.25ZM401.959 107.25H379.5V3.20834H401.959V107.25ZM528.915 3.20834V110L466.125 55.4585V106.334H444.125V0L506.915 54.5415V3.20834H528.915Z" fill="white"/>
</svg>
