<svg width="64" height="41" viewBox="0 0 64 41" fill="none" xmlns="http://www.w3.org/2000/svg">
<path d="M31.9 40.3C32.6 40.3 33.2 40.1 33.8 39.8L40.8 35.8C42.2 35 43.8 34.7 45.5 34.8C54 35.8 59.9 37.4 61.7 37.9C62.1 38 62.5 37.9 62.7 37.6C63 37.2 63.3 36.7 63.6 35.8C63.9 35 63.9 34.3 63.9 33.9C63.9 33.5 63.6 33.2 63.2 33.1C60.5 32.3 48.3 29 32 29C15.7 29 3.4 32.2 0.7 33C0.3 33.1 0 33.5 0 33.9C0 34.3 0 35 0.3 35.8C0.6 36.6 0.9 37.2 1.2 37.6C1.4 37.9 1.8 38 2.2 37.9C4 37.4 9.9 35.8 18.4 34.8C20 34.6 21.7 35 23.1 35.8L30.1 39.8C30.6 40.1 31.3 40.3 31.9 40.3ZM20.3 17.6C20.7 18.3 21.3 18.7 22 18.9C22.7 19.1 23.4 19 24.1 18.6C24.8 18.2 25.2 17.6 25.4 16.9C25.6 16.2 25.5 15.5 25.1 14.8L18.8 4C18.6 3.6 18.2 3.5 17.8 3.6C17.3 3.6 16.6 3.9 15.8 4.4C15 4.9 14.4 5.4 14.1 5.8C13.9 6 13.8 6.4 14 6.8L20.3 17.6ZM14.5 25.4C15.2 25.8 15.9 25.8 16.6 25.7C17.3 25.5 17.9 25.1 18.3 24.4C18.7 23.7 18.7 23 18.6 22.3C18.5 21.6 18 21 17.3 20.6L6.4 14.3C6 14.1 5.6 14.2 5.3 14.4C4.9 14.7 4.4 15.3 3.9 16.1C3.4 16.9 3.2 17.6 3.1 18.1C3.1 18.5 3.2 18.9 3.5 19.1L14.5 25.4ZM34.7 13.8C34.7 14.6 34.4 15.3 33.9 15.8C33.4 16.3 32.7 16.6 31.9 16.6C31.1 16.6 30.4 16.3 29.9 15.8C29.4 15.3 29.1 14.6 29.1 13.8V1.2C29.1 0.8 29.4 0.5 29.7 0.3C30.2 0.1 31 0 31.9 0C32.9 0 33.6 0.1 34 0.4C34.4 0.6 34.6 0.9 34.6 1.3V13.8H34.7ZM43.6 17.6C43.2 18.3 42.6 18.7 41.9 18.9C41.2 19.1 40.5 19 39.8 18.6C39.1 18.2 38.7 17.6 38.5 16.9C38.3 16.2 38.4 15.5 38.8 14.8L45 4C45.2 3.6 45.6 3.5 46 3.6C46.5 3.6 47.2 3.9 48 4.4C48.8 4.9 49.4 5.4 49.7 5.8C50 6 50 6.4 49.9 6.8L43.6 17.6ZM49.3 25.4C48.6 25.8 47.9 25.8 47.2 25.7C46.5 25.5 45.9 25.1 45.5 24.4C45.1 23.7 45.1 23 45.2 22.3C45.4 21.6 45.8 21 46.5 20.6L57.4 14.3C57.8 14.1 58.2 14.2 58.5 14.4C58.9 14.7 59.4 15.3 59.9 16.1C60.4 16.9 60.6 17.6 60.7 18.1C60.7 18.5 60.6 18.9 60.3 19.1L49.3 25.4Z" fill="#0770E3"/>
</svg>
