<svg version="1.1" id="Layer_1" xmlns:x="ns_extend;" xmlns:i="ns_ai;" xmlns:graph="ns_graphs;" xmlns="http://www.w3.org/2000/svg" xmlns:xlink="http://www.w3.org/1999/xlink" x="0px" y="0px" viewBox="0 0 290.3 47" style="enable-background:new 0 0 290.3 47;" xml:space="preserve">
 <style type="text/css">
  .st0{fill:#0770E3;}
 </style>
 <metadata>
  <sfw xmlns="ns_sfw;">
   <slices>
   </slices>
   <sliceSourceBounds bottomLeftOrigin="true" height="47" width="290.3" x="55.1" y="-223.7">
   </sliceSourceBounds>
  </sfw>
 </metadata>
 <path class="st0" d="M31.9,40.3c0.7,0,1.3-0.2,1.9-0.5l7-4c1.4-0.8,3-1.1,4.7-1c8.5,1,14.4,2.6,16.2,3.1c0.4,0.1,0.8,0,1-0.3
	c0.3-0.4,0.6-0.9,0.9-1.8c0.3-0.8,0.3-1.5,0.3-1.9c0-0.4-0.3-0.7-0.7-0.8c-2.7-0.8-14.9-4.1-31.2-4.1S3.4,32.2,0.7,33
	C0.3,33.1,0,33.5,0,33.9c0,0.4,0,1.1,0.3,1.9c0.3,0.8,0.6,1.4,0.9,1.8c0.2,0.3,0.6,0.4,1,0.3c1.8-0.5,7.7-2.1,16.2-3.1
	c1.6-0.2,3.3,0.2,4.7,1l7,4C30.6,40.1,31.3,40.3,31.9,40.3z M20.3,17.6c0.4,0.7,1,1.1,1.7,1.3c0.7,0.2,1.4,0.1,2.1-0.3
	c0.7-0.4,1.1-1,1.3-1.7c0.2-0.7,0.1-1.4-0.3-2.1L18.8,4c-0.2-0.4-0.6-0.5-1-0.4c-0.5,0-1.2,0.3-2,0.8s-1.4,1-1.7,1.4
	C13.9,6,13.8,6.4,14,6.8C14,6.8,20.3,17.6,20.3,17.6z M14.5,25.4c0.7,0.4,1.4,0.4,2.1,0.3c0.7-0.2,1.3-0.6,1.7-1.3
	c0.4-0.7,0.4-1.4,0.3-2.1S18,21,17.3,20.6L6.4,14.3c-0.4-0.2-0.8-0.1-1.1,0.1c-0.4,0.3-0.9,0.9-1.4,1.7c-0.5,0.8-0.7,1.5-0.8,2
	c0,0.4,0.1,0.8,0.4,1L14.5,25.4z M34.7,13.8c0,0.8-0.3,1.5-0.8,2c-0.5,0.5-1.2,0.8-2,0.8c-0.8,0-1.5-0.3-2-0.8
	c-0.5-0.5-0.8-1.2-0.8-2V1.2c0-0.4,0.3-0.7,0.6-0.9C30.2,0.1,31,0,31.9,0c1,0,1.7,0.1,2.1,0.4c0.4,0.2,0.6,0.5,0.6,0.9V13.8z
	 M43.6,17.6c-0.4,0.7-1,1.1-1.7,1.3c-0.7,0.2-1.4,0.1-2.1-0.3s-1.1-1-1.3-1.7c-0.2-0.7-0.1-1.4,0.3-2.1L45,4c0.2-0.4,0.6-0.5,1-0.4
	c0.5,0,1.2,0.3,2,0.8c0.8,0.5,1.4,1,1.7,1.4C50,6,50,6.4,49.9,6.8L43.6,17.6L43.6,17.6z M49.3,25.4c-0.7,0.4-1.4,0.4-2.1,0.3
	c-0.7-0.2-1.3-0.6-1.7-1.3c-0.4-0.7-0.4-1.4-0.3-2.1c0.2-0.7,0.6-1.3,1.3-1.7l10.9-6.3c0.4-0.2,0.8-0.1,1.1,0.1
	c0.4,0.3,0.9,0.9,1.4,1.7c0.5,0.8,0.7,1.5,0.8,2c0,0.4-0.1,0.8-0.4,1L49.3,25.4z M118.7,16.8h5.2c0.2,0,0.4,0.1,0.4,0.3l5.2,13.3
	l5-13.3c0.1-0.2,0.3-0.3,0.4-0.3h5.1c0.4,0,0.6,0.4,0.4,0.6l-12.8,29.3c-0.1,0.2-0.3,0.3-0.4,0.3h-4.5c-0.3,0-0.6-0.4-0.4-0.6
	l4.4-10.2l-8.6-18.7C118.1,17.1,118.4,16.8,118.7,16.8L118.7,16.8z M196,19.8v-2.5c0-0.3,0.2-0.5,0.5-0.5h4.6c0.3,0,0.5,0.2,0.5,0.5
	v19.9c0,0.3-0.2,0.5-0.5,0.5h-4.6c-0.3,0-0.5-0.2-0.5-0.5v-2.6c-1,1.5-3.2,3.5-6.7,3.5c-6.8,0-10.3-5.2-10.3-10.9
	c0-7.5,5.2-10.8,10.1-10.8C192.3,16.3,194.6,17.9,196,19.8z M184.6,27.2c0,3.6,2.2,6.3,5.7,6.3c3.5,0,5.8-2.4,5.8-6.1
	s-2.2-6.5-6-6.5C186.6,20.9,184.6,23.7,184.6,27.2z M205.7,37.1V17.3c0-0.3,0.2-0.5,0.5-0.5h4.6c0.3,0,0.5,0.2,0.5,0.5V20
	c1.1-1.9,3.1-3.6,6.6-3.6c3.6,0,7.6,1.8,7.6,9.8v10.9c0,0.3-0.2,0.5-0.5,0.5h-4.6c-0.3,0-0.5-0.2-0.5-0.5V26.3
	c0-1.9-0.5-5.3-3.9-5.3c-3.4,0-4.7,3-4.7,5.8v10.3c0,0.3-0.2,0.5-0.5,0.5h-4.6C205.9,37.6,205.7,37.4,205.7,37.1L205.7,37.1z
	 M229.4,37.1V17.3c0-0.3,0.2-0.5,0.5-0.5h4.6c0.3,0,0.5,0.2,0.5,0.5V20c1.1-1.9,3.1-3.6,6.6-3.6c3.6,0,7.6,1.8,7.6,9.8v10.9
	c0,0.3-0.2,0.5-0.5,0.5h-4.6c-0.3,0-0.5-0.2-0.5-0.5V26.3c0-1.9-0.5-5.3-3.9-5.3c-3.4,0-4.7,3-4.7,5.8v10.3c0,0.3-0.2,0.5-0.5,0.5
	h-4.6C229.6,37.6,229.4,37.4,229.4,37.1L229.4,37.1z M278,16.8h4.5c0.3,0,0.5,0.2,0.5,0.5v4.1c0.9-4.1,4.4-5.5,7-4.9
	c0.2,0,0.4,0.2,0.4,0.4v4.5c0,0.3-0.3,0.5-0.6,0.4c-4.7-0.9-6.6,1.6-6.6,5.2v10c0,0.3-0.2,0.5-0.5,0.5H278c-0.3,0-0.5-0.2-0.5-0.5
	V17.3C277.5,17,277.8,16.8,278,16.8L278,16.8z M88,21.3c-1.4-0.5-2.2-0.8-3.4-1.1c-1.2-0.4-3.2-1.6-3.2-3.4s1.3-3,3.9-3
	c2.4,0,3.7,1.1,4.5,3c0.1,0.3,0.4,0.4,0.7,0.2l3.8-2.2c0.2-0.1,0.3-0.4,0.2-0.6c-1.1-2.5-3.8-5.6-9.1-5.6c-5.9,0-9.6,3.5-9.6,8.1
	c0,4.6,3,7,7.1,8.4c1.5,0.5,2.1,0.7,3.4,1.1c2.4,0.8,3.5,1.9,3.5,3.4c0,1.5-1,3.3-4.7,3.3c-3.4,0-4.7-1.8-5.4-3.5
	c-0.1-0.3-0.4-0.4-0.7-0.2l-4,2.3c-0.2,0.1-0.3,0.4-0.2,0.6c1.5,3.8,5.7,6,10.4,6c5.5,0,10.2-2.8,10.2-8.5S89.5,21.8,88,21.3z
	 M118.5,32.2c-0.1-0.2-0.4-0.3-0.7-0.2c-1.8,1.3-3.9,1.3-5.5-1.1c-1.3-2.1-3-4.6-3-4.6l7-8.7c0.3-0.3,0-0.8-0.4-0.8h-5.5
	c-0.2,0-0.3,0.1-0.4,0.2l-6.1,8.3V8.6c0-0.3-0.2-0.5-0.5-0.5H99c-0.3,0-0.5,0.2-0.5,0.5v28.6c0,0.3,0.2,0.5,0.5,0.5h4.7
	c0.3,0,0.5-0.2,0.5-0.5v-9.3c0,0,3.1,4.9,4.3,6.7c1.6,2.5,3.8,3.5,6.3,3.5c2.3,0,3.8-0.6,5.5-2.3c0.2-0.2,0.2-0.4,0.1-0.6
	L118.5,32.2L118.5,32.2z M151.7,25.6c-1.5-0.5-2-0.7-3.1-1.1c-1.1-0.4-2.1-1-2.1-1.9c0-0.9,0.8-1.9,2.5-1.9c1.5,0,2.4,0.6,2.9,1.6
	c0.1,0.3,0.4,0.3,0.6,0.2l3.3-1.9c0.2-0.1,0.3-0.4,0.2-0.6c-0.9-1.6-2.6-3.5-6.9-3.5c-5.2,0-7.9,3-7.9,6.3s2.7,4.9,5.2,5.9
	c2.8,1.1,3,1.2,3.4,1.3c0.9,0.4,1.9,0.9,1.9,1.9c0,1-1.1,1.9-2.9,1.9c-1.6,0-3.5-0.7-4.2-2.6c-0.1-0.3-0.4-0.4-0.7-0.2l-3.3,1.9
	c-0.2,0.1-0.3,0.4-0.2,0.6c1,2.5,3.8,4.7,8.4,4.7c5,0,8.3-2.6,8.3-6.4S154.5,26.6,151.7,25.6L151.7,25.6z M170.4,21.3
	c2.1,0,3.6,0.6,5,1.7c0.2,0.2,0.5,0.1,0.7-0.1l1.9-3.3c0.1-0.2,0.1-0.5-0.2-0.6c-2-1.3-4.4-2.6-7.8-2.6c-3.3,0-6.3,0.9-8.5,3.1
	c-2.2,2.2-3.2,4.8-3.2,7.8c0,3.7,1.5,6.1,3.2,7.7c1.7,1.7,4.7,3.1,8.5,3.1c3.4,0,6-1.4,7.8-2.6c0.2-0.1,0.3-0.4,0.1-0.6l-1.9-3.3
	c-0.1-0.2-0.4-0.3-0.7-0.2c-1.2,0.9-3,1.7-5,1.7c-2.3,0-6.4-1.3-6.4-5.9S168.2,21.3,170.4,21.3L170.4,21.3z M264.3,33.4
	c-1.9,0-3.6-0.4-4.9-1.5s-1.9-2.1-1.9-3.3h16.5c0.3,0,0.5-0.2,0.5-0.5c-0.1-4.9-1.7-7.2-3.2-8.8c-1.6-1.6-4.3-3.1-7.9-3.1
	s-6.3,1.3-8.2,3.2c-1.9,1.9-3.3,4.2-3.3,7.8s1.4,5.9,3.2,7.7c1.8,1.8,4.6,3.1,8.7,3.1c3.9,0,7.2-1.4,9.5-4.1
	c0.2-0.2,0.1-0.6-0.1-0.7l-3.3-1.9c-0.2-0.1-0.4-0.1-0.5,0.1C267.9,32.9,265.8,33.4,264.3,33.4z M263.4,20.8c2.6,0,5.1,1.6,5.5,4.5
	h-11.1C258.5,22.2,260.8,20.8,263.4,20.8L263.4,20.8z">
 </path>
</svg>