<svg version="1.1" id="Layer_1" xmlns:x="ns_extend;" xmlns:i="ns_ai;" xmlns:graph="ns_graphs;" xmlns="http://www.w3.org/2000/svg" xmlns:xlink="http://www.w3.org/1999/xlink" x="0px" y="0px" viewBox="0 0 34.4 40" style="enable-background:new 0 0 34.4 40;" xml:space="preserve">
 <style type="text/css">
  .st0{fill:#FFFFFF;}
 </style>
 <metadata>
  <sfw xmlns="ns_sfw;">
   <slices>
   </slices>
   <sliceSourceBounds bottomLeftOrigin="true" height="40" width="34.4" x="337.8" y="-400.1">
   </sliceSourceBounds>
  </sfw>
 </metadata>
 <g>
  <path class="st0" d="M26.8,18.5c-0.2-0.1-0.3-0.2-0.5-0.2c-0.3-5.7-3.4-8.9-8.6-9c0,0,0,0-0.1,0c-3.1,0-5.7,1.3-7.3,3.8l2.9,2
		c1.2-1.8,3.1-2.2,4.4-2.2c0,0,0,0,0,0c1.7,0,3,0.5,3.9,1.5c0.6,0.7,1,1.7,1.2,2.9c-1.5-0.3-3.2-0.3-4.9-0.2c-5,0.3-8.2,3.2-7.9,7.2
		c0.1,2,1.1,3.8,2.9,4.9c1.5,1,3.4,1.4,5.3,1.3c2.6-0.1,4.6-1.1,6.1-2.9c1.1-1.4,1.8-3.2,2.1-5.4c1.2,0.7,2.2,1.7,2.7,2.9
		c0.9,2,0.9,5.3-1.8,8c-2.4,2.4-5.2,3.4-9.5,3.4c-4.8,0-8.3-1.6-10.7-4.5C4.6,29.2,3.5,25.1,3.5,20c0-5.1,1.2-9.2,3.4-11.9
		c2.3-3,5.9-4.5,10.7-4.5c4.8,0,8.4,1.6,10.9,4.6c1.2,1.5,2.1,3.3,2.7,5.5l3.4-0.9C33.7,10,32.6,7.7,31,5.8C27.9,2,23.4,0,17.5,0h0
		C11.6,0,7.1,2,4.1,5.8C1.4,9.3,0,14,0,20l0,0l0,0c0,6,1.4,10.7,4.1,14.1c3,3.8,7.5,5.8,13.4,5.8h0c5.2,0,8.9-1.4,11.9-4.4
		c4-3.9,3.8-8.9,2.5-11.9C31,21.5,29.2,19.7,26.8,18.5z M17.8,27c-2.2,0.1-4.4-0.9-4.5-2.9c-0.1-1.6,1.1-3.3,4.7-3.5
		c0.4,0,0.8,0,1.2,0c1.3,0,2.5,0.1,3.6,0.4C22.3,26,19.9,26.9,17.8,27z">
  </path>
 </g>
</svg>