<svg width="211" height="211" viewBox="0 0 211 211" fill="none" xmlns="http://www.w3.org/2000/svg">
<g clip-path="url(#clip0_32_247)">
<path d="M189.675 48.641L188.174 50.3787C182.253 56.7359 174.259 60.4315 165.527 60.7019C165.144 60.757 164.708 60.757 164.325 60.757C163.234 60.757 162.224 60.7019 161.19 60.5942C181.762 84.7689 184.874 120.356 166.508 148.147C148.226 175.773 114.392 187.047 84.1038 178.028H83.9123C71.6335 174.821 57.7176 179.656 50.3503 190.987C57.9904 179.385 56.899 164.526 48.4403 154.313V154.205C28.495 130.081 25.7663 95.0371 43.9644 67.6552C63.8881 37.5063 102.362 26.8551 134.504 40.7638C133.14 37.231 132.266 33.4277 132.049 29.543C131.776 22.4821 133.822 15.6892 137.724 9.98545C94.6114 -4.14116 45.4962 11.3426 19.3014 51.0034C-12.2166 98.5436 1.01725 162.381 48.4953 193.619C96.0835 224.888 160.015 211.576 191.394 164.308C215.406 127.989 213.359 82.136 189.702 48.5859L189.675 48.641Z" fill="#E91E33"/>
<path d="M76.5187 24.4618C50.4053 27.0468 27.5399 38.1552 18.9448 51.2478C-12.4344 98.6516 0.718062 162.408 48.3325 193.648L50.0798 190.987C57.7176 179.385 56.6261 164.526 48.1674 154.313V154.205C28.4926 130.081 25.7639 95.0374 43.7753 67.6554C63.6918 37.5065 102.168 26.8553 134.311 40.7641C134.311 40.7641 107.024 21.4747 76.5738 24.4642L76.5187 24.4618Z" fill="#BF0F22"/>
<path d="M149.701 53.4234C149.701 53.4234 148.882 43.6435 153.248 36.5802C157.614 29.5169 166.891 22.59 178.624 23.3224C190.412 24.0572 192.322 26.7739 192.322 26.7739C192.322 26.7739 192.595 36.281 189.321 41.7143C186.047 47.1476 179.225 55.1324 169.402 57.143C159.579 59.1272 149.701 53.4234 149.701 53.4234Z" fill="#6FBC23"/>
<path d="M146.154 50.678C146.154 50.678 145.062 41.1709 151.611 31.6638C158.16 22.1543 165.254 20.7422 165.254 20.7422C165.254 20.7422 164.435 7.70222 158.16 1.4551C158.705 1.31867 150.682 1.64659 143.698 9.33221C137.53 16.07 133.875 26.7188 136.604 37.0421C139.332 47.363 146.154 50.678 146.154 50.678Z" fill="#519A23"/>
</g>
<defs>
<clipPath id="clip0_32_247">
<rect width="210.631" height="210.631" fill="white"/>
</clipPath>
</defs>
</svg>
