<svg xmlns="http://www.w3.org/2000/svg" viewBox="0 0 132 86" fill="none"><path fill="#fff" d="M44.508 49.657c0 6.436-5.218 11.654-11.653 11.654s-11.653-5.218-11.653-11.654c0-6.435 5.218-11.654 11.653-11.654s11.653 5.218 11.653 11.654m54.028-11.654c-6.435 0-11.653 5.218-11.653 11.654S92.1 61.311 98.536 61.311s11.653-5.218 11.653-11.654c-.002-6.432-5.215-11.647-11.647-11.65zm32.855 11.654c0 18.136-14.715 32.84-32.855 32.84a32.7 32.7 0 0 1-22.31-8.74L65.71 85.196 55.19 73.744a32.7 32.7 0 0 1-22.317 8.754C14.746 82.497.036 67.792.036 49.656a32.75 32.75 0 0 1 10.71-24.27L0 13.693h23.876c25.263-17.195 58.467-17.195 83.73 0h23.814l-10.745 11.692a32.75 32.75 0 0 1 10.716 24.271m-76.305 0c0-12.274-9.95-22.225-22.223-22.225S10.64 37.383 10.64 49.657s9.95 22.225 22.223 22.225 22.222-9.948 22.223-22.222zm35.284-33.18a64.13 64.13 0 0 0-49.326 0c14.03 5.37 24.667 17.915 24.667 32.54 0-14.624 10.635-27.17 24.66-32.538zm30.395 33.18c0-12.274-9.95-22.225-22.223-22.225s-22.223 9.95-22.223 22.224S86.268 71.88 98.54 71.88s22.223-9.95 22.223-22.225"/></svg>