<svg width="213" height="80" viewBox="0 0 213 80" fill="none" xmlns="http://www.w3.org/2000/svg" xmlns:xlink="http://www.w3.org/1999/xlink">
 <path d="M33.0587 19.088L16.528 9.544L0 19.088V9.544L16.5307 0L33.0613 9.544V19.088H33.0587Z" fill="#A435F0">
 </path>
 <path d="M0 27.1013H8.65866V48.1386C8.65866 53.576 12.7173 56.224 16.5307 56.224C20.3733 56.224 24.4027 53.504 24.4027 48.0666V27.1013H33.0613V48.64C33.0613 53.648 31.488 57.512 28.3387 60.16C25.1893 62.808 21.2533 64.096 16.4587 64.096C11.664 64.096 7.728 62.808 4.65066 60.16C1.57333 57.512 0 53.792 0 48.8533V27.1013Z" fill="white">
 </path>
 <path d="M107.92 53.2479C105.299 55.5813 102.312 56.7253 98.9066 56.7253C92.6986 56.7253 88.5307 53.1866 88.0613 47.7066H116.04C116.04 47.7066 116.224 45.936 116.224 44.2746C116.224 39.1226 114.579 34.8293 111.216 31.3226C107.925 27.816 103.632 26.0986 98.408 26.0986C92.8986 26.0986 88.3893 27.816 84.8107 31.3226C81.304 34.8293 79.5146 39.408 79.5146 45.1333V45.4186C79.5146 51.072 81.304 55.5786 84.8107 58.944C88.3173 62.3066 92.968 64.0239 98.6213 64.0239C105.195 64.0239 110.427 61.4319 114.352 56.9599L107.92 53.2479ZM91.464 35.688C93.3946 34.184 95.7573 33.3973 98.4053 33.3973C100.909 33.3973 102.984 34.184 104.773 35.76C106.483 37.1946 107.405 38.9573 107.485 40.984H88.28C88.5573 38.8906 89.616 37.1253 91.464 35.688Z" fill="white">
 </path>
 <path d="M195.085 68.8853C191.568 77.1787 187.893 80 182.259 80C181.293 80 178.355 80 178.355 80V72.3253C178.355 72.3253 179.573 72.3253 181.512 72.3253C183.451 72.3253 185.253 71.5973 186.971 67.632C188.688 63.6667 188.688 63.6667 188.688 63.6667L173.875 27.1013H182.677L193.197 53.4347L204.003 27.1013H212.805C212.803 27.1013 198.704 60.3493 195.085 68.8853Z" fill="white">
 </path>
 <path d="M66.7708 13.2906V30.368C63.9334 27.824 59.5201 26.312 55.2507 26.312C50.1707 26.312 45.8774 28.1013 42.3708 31.7493C38.9361 35.328 37.2188 39.7626 37.2188 45.1306C37.2188 50.4986 38.9361 54.9333 42.3708 58.584C45.8774 62.1627 50.1707 63.952 55.2507 63.952C61.1121 63.952 64.8134 61.6507 66.7708 59.8453V63.1653H75.3574V13.2906H66.7708ZM64.1948 53.0053C62.1201 55.08 59.4721 56.1546 56.3948 56.1546C53.3174 56.1546 50.8134 55.08 48.7387 53.0053C46.7361 50.9306 45.7334 48.2827 45.7334 45.1333C45.7334 41.984 46.7361 39.336 48.7387 37.2613C50.8134 35.1867 53.3174 34.112 56.3948 34.112C59.4721 34.112 62.1201 35.1867 64.1948 37.2613C66.3414 39.336 67.4161 41.984 67.4161 45.1333C67.4161 48.2827 66.3414 50.9306 64.1948 53.0053Z" fill="white">
 </path>
 <path d="M160.525 26.3867C154.003 26.3867 150.611 29.0933 148.288 31.6987C147.36 29.928 144.744 26.3867 138.629 26.3867C133.464 26.3867 130.416 28.9973 128.899 30.8587V27.104H120.384V63.168H128.899V42.416C128.899 37.5493 131.904 34.0427 135.912 34.0427C139.992 34.0427 142.352 37.12 142.352 42.056V63.1653H150.867V42.4133C150.867 37.4747 153.8 34.04 158.021 34.04C162.101 34.04 164.461 37.1173 164.461 42.0533V63.1626H173.048V40.8373C173.048 31.4347 167.995 26.3867 160.525 26.3867Z" fill="white">
 </path>
</svg>