<svg width="344" height="346" viewBox="0 0 344 346" fill="none" xmlns="http://www.w3.org/2000/svg">
<path d="M172.51 0C78.22 0 1.47 76.74 1.43 171.06C1.42 201.21 9.3 230.64 24.27 256.58L0 345.24L90.69 321.45C115.68 335.08 143.81 342.26 172.44 342.27H172.51C266.79 342.27 343.54 265.52 343.58 171.2C343.6 125.49 325.82 82.51 293.52 50.18C261.22 17.84 218.27 0.02 172.51 0ZM172.51 313.38H172.45C146.94 313.38 121.91 306.51 100.08 293.56L94.89 290.48L41.08 304.6L55.44 252.13L52.06 246.75C37.83 224.11 30.31 197.94 30.32 171.08C30.35 92.68 94.14 28.9 172.57 28.9C210.55 28.91 246.25 43.72 273.09 70.6C299.94 97.47 314.71 133.2 314.7 171.19C314.67 249.59 250.88 313.38 172.51 313.38ZM250.5 206.89C246.23 204.75 225.21 194.41 221.29 192.98C217.37 191.55 214.52 190.84 211.67 195.12C208.82 199.4 200.63 209.03 198.14 211.88C195.65 214.74 193.15 215.09 188.88 212.95C184.61 210.81 170.83 206.29 154.51 191.73C141.8 180.4 133.22 166.4 130.73 162.12C128.24 157.84 130.46 155.53 132.61 153.4C134.53 151.49 136.88 148.41 139.02 145.91C141.16 143.41 141.87 141.63 143.29 138.77C144.71 135.92 144 133.42 142.93 131.28C141.86 129.14 133.31 108.1 129.75 99.54C126.28 91.21 122.76 92.33 120.13 92.2C117.64 92.07 114.79 92.05 111.94 92.05C109.09 92.05 104.46 93.12 100.54 97.4C96.62 101.68 85.58 112.02 85.58 133.06C85.58 154.1 100.9 174.43 103.03 177.28C105.17 180.13 133.17 223.31 176.05 241.82C186.25 246.22 194.21 248.85 200.42 250.82C210.66 254.07 219.98 253.61 227.34 252.51C235.55 251.28 252.63 242.17 256.19 232.18C259.75 222.2 259.75 213.64 258.68 211.85C257.61 210.07 254.76 209 250.49 206.86L250.5 206.89Z" fill="#25D366"/>
</svg>
