<svg width="156" height="41" viewBox="0 0 156 41" fill="none" xmlns="http://www.w3.org/2000/svg">
<path d="M11.67 15.6791V6.94906L7.77 4.64906V24.0391L14.24 21.0091L14.25 25.2491L3.93 30.3891V2.31906L0.04 0.0390625L0 32.3891L3.75 34.8991L18.16 27.7391L18.14 19.4891L11.67 15.6791ZM36.91 17.0191C36.51 16.5391 35.99 16.1691 35.41 15.9691C34.71 15.7391 33.97 15.6291 33.23 15.6491C32.34 15.6991 31.46 15.9091 30.65 16.2891V12.8291L27.49 11.1491V28.1691H32.16C33.09 28.1791 34.03 28.0791 34.94 27.8591C35.63 27.6791 36.27 27.3191 36.78 26.8091C37.3 26.2691 37.66 25.6091 37.83 24.8791C38.06 23.9091 38.17 22.9191 38.15 21.9191C38.13 20.9291 38.01 19.9491 37.78 18.9891C37.64 18.2691 37.34 17.5991 36.91 17.0191ZM34.74 23.4291C34.67 23.8091 34.53 24.1691 34.31 24.4791C34.09 24.7591 33.8 24.9691 33.46 25.0791C33.04 25.2091 32.6 25.2691 32.16 25.2591L31.58 25.2991L30.67 25.2291V18.8291L31.01 18.7491C31.6 18.5891 32.21 18.5091 32.82 18.5091C34.17 18.5091 34.83 19.5691 34.83 21.7391C34.84 22.3091 34.81 22.8691 34.74 23.4291ZM43.99 15.9291H40.83V27.8791H43.99V19.8691L44.47 19.7091C44.94 19.5691 45.44 19.4191 45.99 19.2791C46.54 19.1391 47.14 18.9991 47.79 18.8691V15.6491C46.44 15.9491 45.15 16.4691 43.97 17.1991L43.99 15.9291ZM54.94 15.6491C54.06 15.6191 53.18 15.7691 52.36 16.0891C51.69 16.3491 51.1 16.7891 50.65 17.3391C50.21 17.9191 49.89 18.5891 49.73 19.2991C49.54 20.1491 49.45 21.0091 49.47 21.8791C49.47 26.0891 51.31 28.1991 54.97 28.1991C58.63 28.1991 60.46 26.0891 60.46 21.8791C60.56 20.2491 60.12 18.6291 59.2 17.2791C58.67 16.6891 58 16.2391 57.26 15.9491C56.52 15.6691 55.73 15.5691 54.94 15.6491ZM56.71 24.5991C56.52 24.8891 56.26 25.1291 55.94 25.2691C55.63 25.4191 55.28 25.4791 54.94 25.4391C54.5 25.4591 54.07 25.3491 53.71 25.1191C53.41 24.9091 53.18 24.6191 53.03 24.2791C52.88 23.9191 52.78 23.5291 52.75 23.1291C52.71 22.7191 52.68 22.2991 52.68 21.8791C52.62 20.9591 52.79 20.0391 53.17 19.1991C53.38 18.9391 53.65 18.7291 53.96 18.5791C54.27 18.4391 54.6 18.3591 54.94 18.3591C55.27 18.3591 55.61 18.4391 55.91 18.5791C56.22 18.7291 56.49 18.9391 56.71 19.1991C57.08 20.0391 57.24 20.9591 57.18 21.8791C57.24 22.8091 57.08 23.7391 56.71 24.5991ZM74.92 25.1491H74.35L72.53 16.1691H69.23L67.41 25.1491H66.84L65.38 15.9291H62.22L64.49 27.8791H69.52L70.87 20.5691L72.24 27.8791H77.25L79.53 15.9291H76.38L74.92 25.1491ZM90.09 21.7391C89.8 21.4391 89.44 21.1991 89.04 21.0391C88.5 20.8191 87.94 20.6791 87.37 20.5991C86.72 20.4791 86.19 20.3891 85.8 20.2891C85.52 20.2391 85.25 20.1591 84.98 20.0691C84.84 20.0291 84.71 19.9391 84.63 19.8291C84.54 19.7091 84.49 19.5591 84.49 19.4191C84.49 19.2891 84.52 19.1491 84.58 19.0391C84.64 18.9191 84.74 18.8191 84.85 18.7491C85.34 18.5591 85.87 18.4891 86.39 18.5291C86.79 18.5291 87.33 18.5691 88 18.6291C88.67 18.6891 89.52 18.7991 90.53 18.9191V16.2691L89.74 16.1191C88.93 15.9691 88.2 15.8491 87.55 15.7791C86.99 15.7091 86.45 15.6691 85.89 15.6691C85.27 15.6591 84.64 15.7391 84.04 15.9091C83.51 16.0491 83.01 16.2891 82.58 16.6291C82.17 16.9491 81.85 17.3491 81.62 17.8191C81.38 18.3391 81.26 18.9091 81.27 19.4891C81.27 20.0391 81.37 20.5791 81.55 21.0891C81.68 21.4891 81.92 21.8591 82.23 22.1391C82.56 22.4491 82.95 22.6791 83.38 22.8191C83.91 22.9991 84.45 23.1291 85 23.2091C85.78 23.3191 86.55 23.4891 87.29 23.7291C87.43 23.7891 87.54 23.8791 87.61 23.9991C87.69 24.1191 87.73 24.2691 87.73 24.4091C87.73 24.5491 87.69 24.6791 87.62 24.7991C87.55 24.9191 87.44 25.0091 87.32 25.0691C86.82 25.2691 86.27 25.3591 85.74 25.3091C85.34 25.3091 84.81 25.2791 84.13 25.2191C83.45 25.1491 82.61 25.0591 81.61 24.9291L81.52 27.6091L82.27 27.7391C83.53 28.0091 84.82 28.1491 86.11 28.1791C89.31 28.1791 90.91 26.8891 90.91 24.3091C90.92 23.7991 90.85 23.2891 90.72 22.7991C90.6 22.3991 90.39 22.0391 90.09 21.7391ZM98.26 15.6491C94.75 15.6491 93 17.7491 93 22.0691C92.86 23.7191 93.29 25.3691 94.22 26.7291C94.73 27.2491 95.34 27.6391 96.02 27.8891C96.7 28.1391 97.43 28.2291 98.15 28.1691C99.82 28.1391 101.49 27.9191 103.12 27.4991V25.1291L102.45 25.2091C101.28 25.2991 99.97 25.3391 98.48 25.3391C97.9 25.3891 97.32 25.2191 96.85 24.8591C96.65 24.6491 96.5 24.3991 96.4 24.1191C96.3 23.8491 96.26 23.5591 96.28 23.2691H103.31L103.47 21.0891C103.47 17.4591 101.74 15.6491 98.26 15.6491ZM96.16 20.8291C96.11 20.1391 96.28 19.4491 96.64 18.8591C96.85 18.6491 97.1 18.4791 97.38 18.3791C97.66 18.2791 97.96 18.2391 98.25 18.2691C98.54 18.2391 98.84 18.2691 99.11 18.3691C99.39 18.4691 99.64 18.6291 99.84 18.8391C100.2 19.4391 100.35 20.1391 100.28 20.8291H96.16ZM109.31 15.9291H106.15V27.8791H109.31V19.8691L109.79 19.7091C110.25 19.5691 110.76 19.4191 111.31 19.2791C111.85 19.1391 112.45 18.9991 113.11 18.8691V15.6491C111.75 15.9491 110.46 16.4691 109.28 17.1991L109.31 15.9291ZM115.52 11.1491H118.72V27.8791H115.52V11.1491ZM126.87 15.6491C123.37 15.6491 121.61 17.7891 121.61 22.0691C121.47 23.7191 121.9 25.3691 122.83 26.7291C123.34 27.2491 123.95 27.6391 124.63 27.8891C125.31 28.1391 126.03 28.2291 126.75 28.1691C128.43 28.1391 130.1 27.9191 131.73 27.4991L131.67 25.1291L131 25.2091C129.84 25.2991 128.52 25.3391 127.04 25.3391C126.46 25.3891 125.88 25.2191 125.41 24.8591C125.21 24.6491 125.06 24.3991 124.96 24.1191C124.86 23.8491 124.82 23.5591 124.84 23.2691H131.86L132.11 21.0491C132.09 17.4491 130.35 15.6491 126.87 15.6491ZM124.77 20.8291C124.72 20.1391 124.9 19.4491 125.26 18.8591C125.47 18.6491 125.72 18.4791 126 18.3791C126.28 18.2791 126.58 18.2391 126.87 18.2691C127.16 18.2391 127.46 18.2691 127.74 18.3691C128.01 18.4691 128.26 18.6291 128.46 18.8391C128.82 19.4391 128.97 20.1391 128.91 20.8291H124.77ZM142.88 21.7391C142.59 21.4391 142.23 21.1991 141.83 21.0391C141.31 20.8291 140.76 20.6791 140.2 20.5991C139.55 20.4791 139.03 20.3891 138.64 20.2891C138.36 20.2391 138.08 20.1691 137.81 20.0691C137.67 20.0291 137.55 19.9391 137.46 19.8191C137.38 19.7091 137.33 19.5591 137.34 19.4191C137.33 19.2891 137.36 19.1491 137.42 19.0391C137.48 18.9191 137.58 18.8191 137.7 18.7491C138.18 18.5591 138.7 18.4791 139.22 18.5291C139.62 18.5291 140.16 18.5691 140.83 18.6291C141.52 18.6891 142.36 18.7991 143.36 18.9191V16.2691L142.57 16.1191C141.75 15.9691 141.02 15.8491 140.38 15.7791C139.83 15.7091 139.27 15.6691 138.72 15.6691C138.09 15.6591 137.47 15.7391 136.86 15.9091C136.33 16.0491 135.84 16.2891 135.41 16.6291C135 16.9391 134.68 17.3491 134.45 17.8191C134.21 18.3391 134.09 18.9091 134.11 19.4891C134.09 20.0291 134.17 20.5691 134.33 21.0791C134.47 21.4791 134.7 21.8391 135.01 22.1291C135.34 22.4291 135.73 22.6591 136.16 22.8091C136.69 22.9891 137.23 23.1191 137.78 23.1991C138.56 23.3091 139.33 23.4791 140.07 23.7191C140.2 23.7891 140.3 23.8791 140.38 23.9991C140.45 24.1191 140.49 24.2491 140.49 24.3891C140.49 24.5291 140.45 24.6691 140.38 24.7791C140.3 24.8991 140.2 24.9971 140.07 25.0591C139.57 25.2591 139.03 25.3391 138.5 25.2991C138.1 25.2991 137.56 25.2691 136.88 25.2091C136.21 25.1391 135.37 25.0491 134.36 24.9191L134.26 27.5991L135.03 27.7291C136.29 27.9991 137.57 28.1391 138.85 28.1691C142.05 28.1691 143.65 26.8791 143.65 24.2991C143.66 23.7891 143.6 23.2791 143.46 22.7891C143.36 22.3991 143.16 22.0391 142.88 21.7391ZM155.15 22.7891C155.03 22.3891 154.82 22.0291 154.53 21.7291C154.21 21.4191 153.84 21.1791 153.42 21.0291C152.9 20.8191 152.36 20.6691 151.8 20.5891C151.15 20.4691 150.62 20.3791 150.23 20.2791C149.95 20.2291 149.68 20.1491 149.41 20.0591C149.27 20.0191 149.15 19.9291 149.06 19.8091C148.98 19.6991 148.93 19.5491 148.94 19.4091C148.93 19.2691 148.96 19.1391 149.02 19.0291C149.08 18.9091 149.18 18.8091 149.29 18.7391C149.78 18.5491 150.3 18.4691 150.82 18.5191C151.22 18.5191 151.76 18.5491 152.43 18.6191C153.11 18.6791 153.95 18.7891 154.96 18.9091V16.2591L154.17 16.1091C153.35 15.9591 152.63 15.8391 151.99 15.7691C151.44 15.6991 150.88 15.6591 150.33 15.6591C149.7 15.6491 149.08 15.7291 148.47 15.8991C147.94 16.0391 147.45 16.2791 147.01 16.6191C146.61 16.9391 146.28 17.3391 146.05 17.8091C145.82 18.3291 145.7 18.9091 145.72 19.4791C145.7 20.0191 145.78 20.5591 145.94 21.0691C146.07 21.4691 146.31 21.8391 146.62 22.1191C146.95 22.4191 147.34 22.6491 147.77 22.7991C148.32 22.9791 148.89 23.1191 149.47 23.1991C150.25 23.3091 151.02 23.4791 151.77 23.7191C151.9 23.7791 152.01 23.8691 152.09 23.9991C152.16 24.1091 152.2 24.2491 152.2 24.3991C152.2 24.5391 152.17 24.6691 152.1 24.7891C152.02 24.9091 151.92 24.9991 151.79 25.0591C151.29 25.2591 150.76 25.3391 150.22 25.2991C149.82 25.2991 149.28 25.2991 148.6 25.2091C147.92 25.1091 147.08 25.0491 146.08 24.9191L145.99 27.5991L146.75 27.7291C148.01 27.9991 149.29 28.1391 150.58 28.1691C153.78 28.1691 155.38 26.8791 155.38 24.2991C155.38 23.7891 155.3 23.2791 155.15 22.7891Z" fill="white"/>
</svg>
