<svg width="158" height="18" viewBox="0 0 158 18" fill="none" xmlns="http://www.w3.org/2000/svg">
<path d="M24.4106 5.8632C24.0185 5.3816 23.5013 5.0174 22.9158 4.8106C22.212 4.5852 21.4757 4.4785 20.7369 4.4948C19.8441 4.5419 18.9686 4.7599 18.1579 5.1369V1.6737L15 0V17.0106H19.6632C20.5987 17.0272 21.5325 16.9246 22.4421 16.7053C23.1395 16.5261 23.7758 16.1625 24.2842 15.6527C24.803 15.1177 25.1669 14.4519 25.3369 13.7263C25.5674 12.7578 25.6735 11.7638 25.6527 10.7684C25.6402 9.7788 25.5166 8.7937 25.2842 7.8316C25.1441 7.1183 24.8456 6.4456 24.4106 5.8632ZM22.2421 12.2737C22.1798 12.6527 22.0323 13.0127 21.8106 13.3263C21.5987 13.6087 21.3045 13.8183 20.9685 13.9263C20.5455 14.0541 20.105 14.1145 19.6632 14.1053L19.0842 14.1474L18.179 14.0737V7.6737L18.5158 7.6C19.1048 7.4337 19.7144 7.3522 20.3264 7.3579C21.6737 7.3579 22.3369 8.4106 22.3369 10.5895C22.3492 11.1525 22.3175 11.7156 22.2421 12.2737ZM31.4948 4.779H28.3369V16.7263H31.4948V8.7158L31.979 8.5579C32.4421 8.4106 32.9474 8.2632 33.4948 8.1263C34.0421 7.9895 34.6421 7.8421 35.2948 7.7158V4.4948C33.944 4.7947 32.6526 5.3176 31.4737 6.0421L31.4948 4.779ZM42.4421 4.4948C41.5617 4.4694 40.685 4.6197 39.8632 4.9369C39.196 5.2 38.6085 5.6315 38.1579 6.1895C37.7132 6.7687 37.3974 7.4362 37.2316 8.1474C37.0437 8.9937 36.9589 9.8597 36.979 10.7263C36.979 14.9369 38.8106 17.0421 42.4737 17.0421C46.1369 17.0421 47.9685 14.9369 47.9685 10.7263C48.0691 9.0954 47.6248 7.4772 46.7053 6.1263C46.1742 5.5369 45.5109 5.0817 44.7698 4.7981C44.0288 4.5145 43.2311 4.4105 42.4421 4.4948ZM44.2106 13.4421C44.0257 13.7355 43.7614 13.9704 43.4484 14.1194C43.1353 14.2685 42.7864 14.3257 42.4421 14.2842C42.0089 14.3084 41.5787 14.1981 41.2106 13.9684C40.9167 13.751 40.6845 13.4608 40.5369 13.1263C40.382 12.7613 40.2861 12.3741 40.2527 11.979C40.2106 11.5628 40.1895 11.1447 40.1895 10.7263C40.1285 9.8054 40.2948 8.8837 40.6737 8.0421C40.889 7.7818 41.1592 7.5721 41.4649 7.4283C41.7706 7.2844 42.1043 7.2098 42.4421 7.2098C42.78 7.2098 43.1137 7.2844 43.4194 7.4283C43.7251 7.5721 43.9953 7.7818 44.2106 8.0421C44.585 8.8848 44.7477 9.8064 44.6842 10.7263C44.7449 11.6564 44.5825 12.5875 44.2106 13.4421ZM62.4211 14H61.8527L60.0316 5.0106H56.7369L54.9158 14H54.3474L52.8843 4.779H49.7264L52 16.7263H57.0211L58.379 9.4106L59.7474 16.7263H64.7579L67.0316 4.779H63.8842L62.4211 14ZM77.6 10.5895C77.3004 10.2857 76.9423 10.0458 76.5474 9.8842C76.0094 9.6698 75.4474 9.5214 74.8737 9.4421C74.2211 9.3263 73.6948 9.2316 73.3053 9.1369C73.0266 9.0834 72.7522 9.0095 72.4843 8.9158C72.3435 8.8746 72.2201 8.7885 72.1327 8.6707C72.0453 8.5529 71.9987 8.4098 72 8.2632C71.9933 8.1305 72.0232 7.9985 72.0863 7.8816C72.1494 7.7646 72.2433 7.6673 72.3579 7.6C72.8458 7.4069 73.3723 7.3312 73.8948 7.379C74.2948 7.379 74.8316 7.4106 75.5053 7.4737C76.179 7.5369 77.0211 7.6421 78.0316 7.7684V5.1158L77.2421 4.9684C76.4316 4.8106 75.7053 4.6948 75.0527 4.6211C74.5042 4.5548 73.9525 4.5197 73.4 4.5158C72.774 4.5058 72.1498 4.5873 71.5474 4.7579C71.0162 4.8948 70.5183 5.1383 70.0842 5.4737C69.6794 5.793 69.3519 6.1996 69.1264 6.6632C68.886 7.1878 68.7673 7.7599 68.779 8.3369C68.7793 8.8818 68.8719 9.4228 69.0527 9.9369C69.1877 10.3401 69.4232 10.7024 69.7369 10.9895C70.0681 11.2917 70.4589 11.5212 70.8843 11.6632C71.412 11.8407 71.9545 11.971 72.5053 12.0527C73.2838 12.1624 74.0515 12.3384 74.8 12.579C74.9309 12.6355 75.0419 12.7299 75.1187 12.8499C75.1956 12.9699 75.2349 13.1102 75.2316 13.2527C75.236 13.3913 75.1994 13.5282 75.1264 13.6462C75.0533 13.7641 74.9472 13.8579 74.8211 13.9158C74.3208 14.1185 73.7801 14.2014 73.2421 14.1579C72.8492 14.1579 72.3123 14.1263 71.6316 14.0632C70.9579 14 70.1158 13.9053 69.1158 13.779L69.0211 16.4527L69.779 16.5895C71.0398 16.8534 72.3227 16.9979 73.6106 17.0211C76.8106 17.0211 78.4106 15.7334 78.4106 13.1579C78.4207 12.6462 78.3569 12.1356 78.2211 11.6421C78.105 11.245 77.8915 10.8832 77.6 10.5895ZM85.7685 4.4948C82.2527 4.4948 80.5053 6.6 80.5053 10.9158C80.3627 12.5645 80.7941 14.2118 81.7264 15.579C82.2341 16.0932 82.8497 16.4884 83.5287 16.7359C84.2076 16.9835 84.9331 17.0773 85.6527 17.0106C87.3293 16.9881 88.9973 16.7655 90.6213 16.3474V13.979L89.9583 14.0527C88.7893 14.1474 87.4737 14.1895 85.9895 14.1895C85.4048 14.2328 84.8244 14.0606 84.3579 13.7053C84.1587 13.4939 84.0053 13.2436 83.9074 12.97C83.8096 12.6965 83.7695 12.4056 83.7895 12.1158H90.8103L90.9793 9.9369C90.9793 6.3088 89.2423 4.4948 85.7685 4.4948ZM83.6632 9.6737C83.6152 8.9831 83.7845 8.2948 84.1474 7.7053C84.354 7.4919 84.6062 7.328 84.8851 7.2259C85.164 7.1238 85.4624 7.0862 85.7579 7.1158C86.0487 7.0821 86.3434 7.1158 86.6191 7.2144C86.8947 7.313 87.1439 7.4737 87.3474 7.6842C87.7013 8.284 87.8563 8.9805 87.7893 9.6737H83.6632ZM96.8103 4.779H93.6523V16.7263H96.8103V8.7158L97.2943 8.5579C97.7583 8.4106 98.2633 8.2632 98.8103 8.1263C99.3583 7.9895 99.9583 7.8421 100.61 7.7158V4.4948C99.2593 4.7947 97.9683 5.3176 96.7893 6.0421L96.8103 4.779ZM103.021 0H106.221V16.7263H103.021V0ZM114.379 4.4948C110.87 4.4948 109.116 6.6351 109.116 10.9158C108.973 12.5645 109.404 14.2118 110.337 15.579C110.842 16.093 111.456 16.4881 112.133 16.7357C112.811 16.9833 113.534 17.0772 114.252 17.0106C115.933 16.989 117.604 16.7664 119.231 16.3474L119.179 13.979L118.505 14.0527C117.347 14.1474 116.021 14.1895 114.547 14.1895C113.962 14.2348 113.381 14.0624 112.916 13.7053C112.716 13.4939 112.563 13.2436 112.465 12.97C112.367 12.6965 112.327 12.4056 112.347 12.1158H119.368L119.61 9.8948C119.596 6.2948 117.852 4.4948 114.379 4.4948ZM112.273 9.6737C112.228 8.9819 112.401 8.2933 112.768 7.7053C112.974 7.4906 113.226 7.3259 113.505 7.2237C113.784 7.1215 114.083 7.0846 114.379 7.1158C114.669 7.0821 114.964 7.1158 115.24 7.2144C115.515 7.313 115.765 7.4737 115.968 7.6842C116.322 8.284 116.477 8.9805 116.41 9.6737H112.273ZM130.389 10.5895C130.09 10.2857 129.732 10.0458 129.337 9.8842C128.812 9.6739 128.264 9.5255 127.705 9.4421C127.052 9.3263 126.537 9.2316 126.147 9.1369C125.865 9.0844 125.587 9.0105 125.316 8.9158C125.176 8.8742 125.054 8.7877 124.968 8.6698C124.882 8.5518 124.838 8.4089 124.842 8.2632C124.834 8.1303 124.863 7.9978 124.926 7.8807C124.99 7.7635 125.084 7.6664 125.2 7.6C125.684 7.4054 126.207 7.3296 126.726 7.379C127.126 7.379 127.663 7.4106 128.337 7.4737C129.021 7.5369 129.863 7.6421 130.863 7.7684V5.1158L130.073 4.9684C129.252 4.8106 128.526 4.6948 127.884 4.6211C127.332 4.5546 126.777 4.5195 126.221 4.5158C125.595 4.5065 124.971 4.5881 124.368 4.7579C123.839 4.8927 123.345 5.1365 122.916 5.4737C122.508 5.79 122.18 6.1974 121.958 6.6632C121.717 7.1878 121.599 7.7599 121.61 8.3369C121.595 8.8753 121.67 9.4125 121.831 9.9263C121.97 10.3277 122.205 10.689 122.516 10.979C122.848 11.279 123.239 11.5082 123.663 11.6527C124.191 11.8302 124.733 11.9605 125.284 12.0421C126.063 12.1504 126.831 12.3265 127.579 12.5684C127.703 12.6305 127.807 12.7259 127.88 12.844C127.953 12.9621 127.992 13.0981 127.992 13.2369C127.992 13.3756 127.953 13.5117 127.88 13.6297C127.807 13.7478 127.703 13.8432 127.579 13.9053C127.078 14.1057 126.538 14.1885 126 14.1474C125.6 14.1474 125.063 14.1158 124.389 14.0527C123.716 13.9895 122.873 13.8948 121.863 13.7684L121.768 16.4421L122.537 16.579C123.794 16.8428 125.073 16.9873 126.358 17.0106C129.558 17.0106 131.158 15.7228 131.158 13.1474C131.168 12.6356 131.104 12.1251 130.968 11.6316C130.863 11.2424 130.664 10.8847 130.389 10.5895ZM142.652 11.6316C142.536 11.2345 142.323 10.8727 142.031 10.579C141.718 10.2671 141.341 10.0266 140.926 9.8737C140.405 9.6633 139.861 9.5149 139.305 9.4316C138.652 9.3158 138.126 9.2211 137.737 9.1263C137.458 9.0728 137.183 8.999 136.916 8.9053C136.776 8.8637 136.654 8.7772 136.568 8.6592C136.482 8.5413 136.438 8.3984 136.442 8.2527C136.434 8.1198 136.463 7.9873 136.526 7.8702C136.59 7.753 136.684 7.6558 136.8 7.5895C137.284 7.3949 137.807 7.3191 138.326 7.3684C138.726 7.3684 139.263 7.4 139.937 7.4632C140.61 7.5263 141.452 7.6316 142.463 7.7579V5.1053L141.673 4.9579C140.859 4.8035 140.133 4.6877 139.494 4.6106C138.942 4.5445 138.387 4.5094 137.831 4.5053C137.205 4.4952 136.581 4.5768 135.979 4.7474C135.447 4.8842 134.95 5.1278 134.516 5.4632C134.111 5.7824 133.783 6.1891 133.558 6.6527C133.321 7.1781 133.206 7.7502 133.221 8.3263C133.206 8.8648 133.28 9.4019 133.442 9.9158C133.577 10.3191 133.812 10.6813 134.126 10.9684C134.459 11.2685 134.849 11.4977 135.273 11.6421C135.828 11.8282 136.399 11.9621 136.979 12.0421C137.757 12.1518 138.525 12.3279 139.273 12.5684C139.404 12.625 139.515 12.7193 139.592 12.8394C139.669 12.9594 139.708 13.0996 139.705 13.2421C139.709 13.3808 139.673 13.5177 139.6 13.6356C139.527 13.7536 139.421 13.8474 139.294 13.9053C138.798 14.1071 138.261 14.19 137.726 14.1474C137.326 14.1474 136.789 14.1474 136.105 14.0527C135.421 13.9579 134.589 13.8948 133.589 13.7684L133.494 16.4421L134.252 16.579C135.513 16.8429 136.796 16.9874 138.084 17.0106C141.284 17.0106 142.884 15.7228 142.884 13.1474C142.88 12.6336 142.802 12.123 142.652 11.6316Z" fill="white"/>
</svg>
